# xmcd CD database file
#
# Track frame offsets:
#	150
#	22881
#	40700
#	58099
#	76762
#	96216
#
# Disc length: 1378 seconds
#
# Revision: 0
# Processed by: cddbd v1.5PL3 Copyright (c) Steve Scherf et al.
# Submitted via: CDex 1.51
#
DISCID=3a056006
DTITLE=riya - eufonius
DYEAR=2003
DGENRE=Vocal
TTITLE0=ボクノタカラモノ
TTITLE1=空の影
TTITLE2=マルメロ -album mix-
TTITLE3=リトル・マーチ
TTITLE4=光の果実
TTITLE5=<Bonus track> marumero 〜saphir cero
EXTD=YEAR: 2003
EXTT0=
EXTT1=
EXTT2=
EXTT3=
EXTT4=
EXTT5=
PLAYORDER=
